<svg xmlns="http://www.w3.org/2000/svg" width="72" height="72" viewBox="0 0 72 72"><g id="Group_797" data-name="Group 797" transform="translate(-72 -2086)"><rect id="Rectangle_13" data-name="Rectangle 13" width="72" height="72" transform="translate(72 2086)" fill="none"></rect><g id="search" transform="translate(77 2090.988)"><path id="Path_410" data-name="Path 410" d="M16.354,37.869a26.43,26.43,0,0,1,29.6-26.213A26.409,26.409,0,1,0,33.2,62.493,26.4,26.4,0,0,1,16.354,37.869Zm0,0" transform="translate(-8.406 -8.29)" fill="#d4e1f4"></path><path id="Path_411" data-name="Path 411" d="M48.882,46.636a28.494,28.494,0,1,0-2.257,2.226L59.278,61.516a1.565,1.565,0,0,0,1.129.461,1.631,1.631,0,0,0,1.129-.461,1.585,1.585,0,0,0,0-2.242ZM27.994,52.82a24.822,24.822,0,1,1,24.814-24.83A24.851,24.851,0,0,1,27.994,52.82Zm0,0" fill="#0635c9"></path></g></g></svg>