<svg xmlns="http://www.w3.org/2000/svg" width="72" height="72" viewBox="0 0 72 72"><g id="Group_798" data-name="Group 798" transform="translate(-72 -2086)"><rect id="Rectangle_13" data-name="Rectangle 13" width="72" height="72" transform="translate(72 2086)" fill="none"></rect><g id="truck_2_" data-name="truck (2)" transform="translate(77 2096)"><g id="Group_799" data-name="Group 799" transform="translate(2.26 2.27)"><path id="Path_412" data-name="Path 412" d="M20.458,48.815V14H16.1A2.106,2.106,0,0,0,14,16.108V53.678a2.105,2.105,0,0,0,2.1,2.108h3a6.829,6.829,0,0,1,3.48-4.864h-.025A2.105,2.105,0,0,1,20.458,48.815Zm0,0" transform="translate(-14 -14)" fill="#d4e1f4"></path><path id="Path_413" data-name="Path 413" d="M110.332,246.6h12.121v-4.864h-15.6A6.83,6.83,0,0,1,110.332,246.6Zm0,0" transform="translate(-91.86 -204.816)" fill="#d4e1f4"></path><path id="Path_414" data-name="Path 414" d="M67.148,237.551h6.41A6.744,6.744,0,0,0,67.148,237.551Zm0,0" transform="translate(-58.567 -200.628)" fill="#d4e1f4"></path></g><path id="Path_415" data-name="Path 415" d="M4.359,46.326H8.4a1.135,1.135,0,0,0,0-2.27H4.359a2.105,2.105,0,0,1-2.1-2.108V4.377a2.106,2.106,0,0,1,2.1-2.108h26.4a2.106,2.106,0,0,1,2.1,2.108V44.056H19.7a1.135,1.135,0,0,0,0,2.27H42.3a1.135,1.135,0,0,0,0-2.27H35.114V28.562H59.74V41.948a2.105,2.105,0,0,1-2.1,2.108H53.6a1.135,1.135,0,0,0,0,2.27h4.036A4.373,4.373,0,0,0,62,41.948V27.427c0-.01,0-.019,0-.028s0-.041,0-.061,0-.035-.006-.052-.005-.038-.008-.057-.007-.036-.011-.054-.009-.036-.014-.054-.01-.035-.016-.053-.012-.035-.019-.052-.013-.034-.021-.051l-.024-.05a.514.514,0,0,0-.026-.048l-.028-.047c-.01-.016-.021-.033-.033-.049a.478.478,0,0,0-.031-.042c-.013-.016-.026-.033-.039-.047L61.7,26.66l-8.317-9.1a4.364,4.364,0,0,0-3.212-1.417H35.114V4.377A4.374,4.374,0,0,0,30.755,0H4.359A4.373,4.373,0,0,0,0,4.377V41.948A4.373,4.373,0,0,0,4.359,46.326ZM35.114,18.413H50.173a2.1,2.1,0,0,1,1.546.683l6.579,7.2H35.113Zm0,0" fill="#0635c9"></path><path id="Path_416" data-name="Path 416" d="M51.781,250.357a6.809,6.809,0,1,1,6.781-6.809A6.8,6.8,0,0,1,51.781,250.357Zm0-11.349a4.54,4.54,0,1,0,4.521,4.54A4.53,4.53,0,0,0,51.781,239.008Zm0,0" transform="translate(-37.734 -198.357)" fill="#1ae5be"></path><path id="Path_417" data-name="Path 417" d="M261.781,250.357a6.809,6.809,0,1,1,6.781-6.809A6.8,6.8,0,0,1,261.781,250.357Zm0-11.349a4.54,4.54,0,1,0,4.521,4.54A4.53,4.53,0,0,0,261.781,239.008Zm0,0" transform="translate(-213.828 -198.357)" fill="#1ae5be"></path></g></g></svg>