<svg xmlns="http://www.w3.org/2000/svg" width="72" height="72" viewBox="0 0 72 72"><g id="Group_796" data-name="Group 796" transform="translate(-72 -2086)"><rect id="Rectangle_13" data-name="Rectangle 13" width="72" height="72" transform="translate(72 2086)" fill="none"></rect><g id="writing" transform="translate(76.5 2089.375)"><path id="Path_404" data-name="Path 404" d="M33.7,10.032,33.354,10H5.017A4.961,4.961,0,0,0,.051,14.942V67.047a4.961,4.961,0,0,0,4.966,4.942h1.59V23.1a4.961,4.961,0,0,1,4.966-4.942h28.32V10H33.337" transform="translate(-0.051 -8.369)" fill="#d4e1f4"></path><g id="Group_794" data-name="Group 794" transform="translate(4.572)"><path id="Path_405" data-name="Path 405" d="M294.523,169l2.466-2.148,7.2,8.184-2.466,2.149Zm0,0" transform="translate(-250.834 -139.641)" fill="#0635c9"></path><path id="Path_406" data-name="Path 406" d="M76.624,37.868A1.64,1.64,0,0,0,74.985,39.5V58.661a3.3,3.3,0,0,1-3.294,3.311h-37.2a3.266,3.266,0,0,1-3.262-3.262V6.572a3.266,3.266,0,0,1,3.213-3.311H61.546V15.085A1.657,1.657,0,0,0,63.119,16.8H74.985V25.18a1.639,1.639,0,0,0,3.278,0V15.053a1.639,1.639,0,0,0-.475-1.158L64.3.506,64.283.489A1.68,1.68,0,0,0,63.1,0H34.488a6.538,6.538,0,0,0-6.54,6.54V58.678a6.538,6.538,0,0,0,6.506,6.572H71.691a6.562,6.562,0,0,0,6.572-6.572V39.5A1.64,1.64,0,0,0,76.624,37.868ZM64.824,5.561l7.9,7.975h-7.9Zm0,0" transform="translate(-27.948 0)" fill="#0635c9"></path><path id="Path_407" data-name="Path 407" d="M87.287,124.262h13.128a1.631,1.631,0,1,0,0-3.262H87.287a1.631,1.631,0,1,0,0,3.262Zm0,0" transform="translate(-76.192 -101.267)" fill="#0635c9"></path><path id="Path_408" data-name="Path 408" d="M87.287,189.262H108.02a1.631,1.631,0,1,0,0-3.262H87.287a1.631,1.631,0,1,0,0,3.262Zm0,0" transform="translate(-76.192 -155.666)" fill="#0635c9"></path></g><path id="Path_409" data-name="Path 409" d="M178.69,171.147a1.64,1.64,0,0,1-1.639-1.631,2.389,2.389,0,0,1,.033-.343l1.852-8.708a1.581,1.581,0,0,1,.524-.881l19.864-17.368a6.869,6.869,0,0,1,9.654.62l.016.017.36.408a6.8,6.8,0,0,1-.622,9.589l-10.473,9.181-9.424,8.2a1.7,1.7,0,0,1-.983.408l-9.047.522A.329.329,0,0,0,178.69,171.147Zm3.343-9.459-1.294,6.083,6.342-.359,9.195-8.007,10.259-9.019a3.524,3.524,0,0,0,.328-4.991l-.36-.408a3.571,3.571,0,0,0-5.031-.326Zm0,0" transform="translate(-148.042 -117.607)" fill="#1ae5be"></path></g></g></svg>