<svg xmlns="http://www.w3.org/2000/svg" width="64" height="64" viewBox="0 0 64 64"><defs><style>.a{fill:none;}.b{fill:#d4e1f4;}.c{fill:#0bd0aa;}.d{fill:#0635c9;}</style></defs><rect class="a" width="64" height="64"></rect><g transform="translate(2.999 2.999)"><path class="b" d="M257.071,227.065a1.219,1.219,0,0,0-.7.534l-2.761,4.435,6.175-1.753-.187-3.934Zm0,0" transform="translate(-209.569 -185.108)"></path><path class="b" d="M47.854,97.339a1.166,1.166,0,0,0-.866,0L39.318,100.4,34.83,93.194a1.223,1.223,0,0,0-.7-.534l-7.923-2.25.408-8.6a1.316,1.316,0,0,0-.267-.864L21.2,74.238l5.15-6.706a1.317,1.317,0,0,0,.267-.864L26.393,62,21,63.532l.408,8.6a1.317,1.317,0,0,1-.267.864L15.988,79.7l5.15,6.707a1.316,1.316,0,0,1,.267.864L21,95.876l7.923,2.25a1.223,1.223,0,0,1,.7.534l4.488,7.211,7.671-3.066a1.166,1.166,0,0,1,.866,0l7.671,3.066,3.762-6.044Zm0,0" transform="translate(-13.211 -50.703)"></path><path class="c" d="M104.343,97.646a5.288,5.288,0,1,1,5.034-5.281A5.162,5.162,0,0,1,104.343,97.646Zm0-8.013a2.734,2.734,0,1,0,2.6,2.731A2.67,2.67,0,0,0,104.343,89.633Zm0,0" transform="translate(-82.063 -71.215)"></path><path class="c" d="M179.987,185.607a5.288,5.288,0,1,1,5.035-5.282A5.163,5.163,0,0,1,179.987,185.607Zm0-8.013a2.734,2.734,0,1,0,2.6,2.731A2.669,2.669,0,0,0,179.987,177.594Zm0,0" transform="translate(-144.571 -143.15)"></path><g transform="translate(0.001 0.001)"><path class="d" d="M5.743,36.93l-.434,9.142a1.271,1.271,0,0,0,.9,1.295l8.422,2.391,4.77,7.665a1.186,1.186,0,0,0,1.451.495L29,54.658l8.153,3.259a1.186,1.186,0,0,0,1.45-.494l4.77-7.664L51.8,47.368a1.27,1.27,0,0,0,.9-1.295l-.434-9.142L57.732,29.8a1.324,1.324,0,0,0,0-1.6l-5.473-7.128.434-9.142a1.271,1.271,0,0,0-.9-1.294L43.374,8.246,38.6.579A1.186,1.186,0,0,0,37.153.085L29,3.345,20.848.086A1.186,1.186,0,0,0,19.4.579l-4.77,7.665L6.205,10.635a1.271,1.271,0,0,0-.9,1.294l.434,9.142L.27,28.2a1.324,1.324,0,0,0,0,1.6ZM7.927,22.295a1.317,1.317,0,0,0,.267-.864l-.408-8.6,7.923-2.25a1.223,1.223,0,0,0,.7-.534L20.9,2.835,28.568,5.9a1.166,1.166,0,0,0,.866,0L37.1,2.835l4.488,7.211a1.219,1.219,0,0,0,.7.534l7.924,2.25-.409,8.6a1.317,1.317,0,0,0,.267.864L55.224,29l-5.15,6.707a1.316,1.316,0,0,0-.267.864l.409,8.6-7.924,2.25a1.219,1.219,0,0,0-.7.534L37.1,55.168,29.433,52.1a1.166,1.166,0,0,0-.866,0L20.9,55.168,16.41,47.957a1.223,1.223,0,0,0-.7-.534l-7.923-2.25.408-8.6a1.316,1.316,0,0,0-.267-.864L2.777,29Zm0,0" transform="translate(-0.001 -0.001)"></path><path class="d" d="M111.074,106.288a1.181,1.181,0,0,0,1.682-.371l17.183-27.644A1.33,1.33,0,0,0,130.007,77a1.214,1.214,0,0,0-1.02-.7,1.2,1.2,0,0,0-1.085.579L110.72,104.523A1.314,1.314,0,0,0,111.074,106.288Zm0,0" transform="translate(-91.33 -62.397)"></path></g></g></svg>