<svg xmlns="http://www.w3.org/2000/svg" width="64" height="64" viewBox="0 0 64 64"><defs><style>.a{fill:none;}.b{fill:#d4e1f4;}.c{fill:#0bd0aa;}.d{fill:#0635c9;}</style></defs><rect class="a" width="64" height="64"></rect><g transform="translate(9.918 3)"><path class="b" d="M50.649,85.589H19.568a4.947,4.947,0,0,1-4.976-4.917V39.366a4.852,4.852,0,0,1,.437-2.014,4.944,4.944,0,0,0-4.837,4.913V83.571a4.947,4.947,0,0,0,4.976,4.917H46.249a4.979,4.979,0,0,0,4.539-2.9C50.742,85.588,50.7,85.589,50.649,85.589Zm0,0" transform="translate(-8.627 -31.938)"></path><path class="c" d="M90.81,195.292a1.47,1.47,0,0,1-1.025-.412l-5.913-5.705a1.438,1.438,0,0,1-.431-1.4,1.456,1.456,0,0,1,1.026-1.058,1.477,1.477,0,0,1,1.435.367l.019.019,4.889,4.717,9.629-9.29a1.479,1.479,0,0,1,2.07.028,1.437,1.437,0,0,1-.021,2.046L91.835,194.88A1.472,1.472,0,0,1,90.81,195.292Zm0,0" transform="translate(-71.099 -155.722)"></path><path class="d" d="M37.622,3.937H28.194a6.713,6.713,0,0,0-12.224,0H6.541a6.446,6.446,0,0,0-6.459,6.39V51.633A6.426,6.426,0,0,0,6.541,58H37.622a6.427,6.427,0,0,0,6.46-6.367V10.327A6.447,6.447,0,0,0,37.622,3.937Zm-20.592,2.9a1.452,1.452,0,0,0,1.432-1.127,3.742,3.742,0,0,1,7.238,0,1.456,1.456,0,0,0,1.433,1.131H30V8.131a3.476,3.476,0,0,1-3.465,3.487H17.632a3.476,3.476,0,0,1-3.47-3.483v-1.3Zm24.118,44.8A3.507,3.507,0,0,1,37.622,55.1H6.541a3.507,3.507,0,0,1-3.526-3.468V10.327A3.527,3.527,0,0,1,6.541,6.835h4.688V8.13a6.4,6.4,0,0,0,6.4,6.387h8.9a6.4,6.4,0,0,0,6.4-6.387V6.835h4.687a3.527,3.527,0,0,1,3.526,3.492Zm0,0" transform="translate(0 0)"></path></g></svg>