<svg xmlns="http://www.w3.org/2000/svg" width="64" height="64" viewBox="0 0 64 64"><defs><style>.a{fill:none;}.b{fill:#d4e1f4;}.c{fill:#0bd0aa;}.d{fill:#0635c9;}</style></defs><rect class="a" width="64" height="64"></rect><g transform="translate(5 5.002)"><path class="b" d="M8.053,49.89V44.313a1.509,1.509,0,0,1,1.517-1.5h8.561l.361-35.328A1.509,1.509,0,0,1,20.008,6H54.327V1.5A1.509,1.509,0,0,0,52.81,0H12.424a1.509,1.509,0,0,0-1.517,1.485l-.361,35.328H1.986a1.508,1.508,0,0,0-1.517,1.5V43.89a10.1,10.1,0,0,0,8.395,9.973A10.1,10.1,0,0,1,8.053,49.89Zm0,0" transform="translate(-0.398 -0.001)"></path><g transform="translate(19.77 8.145)"><path class="c" d="M138.943,57.312h-7.091a1.5,1.5,0,1,1,0-3h7.091a1.5,1.5,0,1,1,0,3Zm0,0" transform="translate(-130.336 -54.313)"></path><path class="c" d="M152.477,123.18H131.853a1.5,1.5,0,1,1,0-3h20.624a1.5,1.5,0,1,1,0,3Zm0,0" transform="translate(-130.336 -110.3)"></path><path class="c" d="M152.477,189.047H131.853a1.5,1.5,0,1,1,0-3h20.624a1.5,1.5,0,1,1,0,3Zm0,0" transform="translate(-130.336 -166.287)"></path></g><path class="d" d="M52.413,0H12.026A1.483,1.483,0,0,0,10.51,1.445v.008l-.361,35.3H1.588A1.626,1.626,0,0,0,0,38.312v5.577A10.147,10.147,0,0,0,9.441,53.974,1.462,1.462,0,0,0,9.708,54H43.365a1.464,1.464,0,0,0,.168-.009c.127,0,.254.009.383.009A10.126,10.126,0,0,0,54,43.889V1.5A1.571,1.571,0,0,0,52.413,0ZM3.034,43.889v-4.14H33.826v4.14A10.082,10.082,0,0,0,36.76,51H10.071A7.1,7.1,0,0,1,3.034,43.889Zm47.933,0a7.054,7.054,0,1,1-14.107,0V38.312a1.541,1.541,0,0,0-1.49-1.563H13.183L13.528,3H50.966Zm0,0" transform="translate(0 0)"></path></g></svg>